<svg width="800" height="400" viewBox="0 0 800 400" xmlns="http://www.w3.org/2000/svg"><mask id="satori_om-id"><rect x="0" y="0" width="800" height="400" fill="#fff"/></mask><rect x="0" y="0" width="800" height="400" fill="#fff"/><mask id="satori_om-id-0"><rect x="0" y="0" width="800" height="400" fill="#fff"/></mask><rect x="0" y="0" width="800" height="400" fill="#f9fafb"/><mask id="satori_om-id-0-0"><rect x="0" y="0" width="800" height="400" fill="#fff"/></mask><mask id="satori_om-id-0-0-0"><rect x="186" y="19" width="429" height="116" fill="#fff"/></mask><mask id="satori_om-id-0-0-0-0"><rect x="186" y="19" width="429" height="60" fill="#fff"/></mask><path fill="#111827" d="M187.4 27.2L197.7 27.2L208.2 60.3L208.6 60.3L219.2 27.2L229.4 27.2L214.4 70.8L202.5 70.8L187.4 27.2ZM244.1 71.5L244.1 71.5Q239.1 71.5 235.5 69.3Q231.9 67.2 229.9 63.4Q227.9 59.6 227.9 54.6L227.9 54.6Q227.9 49.5 229.9 45.7Q231.9 41.9 235.5 39.8Q239.1 37.7 244.1 37.7L244.1 37.7Q249.0 37.7 252.6 39.8Q256.2 41.9 258.2 45.7Q260.2 49.5 260.2 54.6L260.2 54.6Q260.2 59.6 258.2 63.4Q256.2 67.2 252.6 69.3Q249.0 71.5 244.1 71.5ZM244.1 64.4L244.1 64.4Q246.4 64.4 247.9 63.1Q249.4 61.8 250.2 59.6Q250.9 57.4 250.9 54.5L250.9 54.5Q250.9 51.7 250.2 49.4Q249.4 47.2 247.9 45.9Q246.4 44.6 244.1 44.6L244.1 44.6Q241.8 44.6 240.3 45.9Q238.7 47.2 237.9 49.4Q237.2 51.7 237.2 54.5L237.2 54.5Q237.2 57.4 237.9 59.6Q238.7 61.8 240.3 63.1Q241.8 64.4 244.1 64.4ZM279.8 70.8L270.2 70.8L261.3 38.1L270.5 38.1L275.6 60.1L275.9 60.1L281.2 38.1L290.2 38.1L295.5 60.0L295.8 60.0L300.8 38.1L310.0 38.1L301.1 70.8L291.5 70.8L285.8 50.2L285.4 50.2L279.8 70.8ZM327.4 71.5L327.4 71.5Q322.3 71.5 318.7 69.4Q315.1 67.3 313.1 63.6Q311.2 59.8 311.2 54.6L311.2 54.6Q311.2 49.6 313.1 45.7Q315.1 41.9 318.6 39.8Q322.2 37.7 327.0 37.7L327.0 37.7Q330.3 37.7 333.1 38.7Q335.9 39.7 338.0 41.8Q340.1 43.9 341.2 47.0Q342.4 50.1 342.4 54.3L342.4 54.3L342.4 56.8L314.8 56.8L314.8 51.2L333.9 51.2Q333.9 49.2 333.0 47.7Q332.2 46.2 330.7 45.3Q329.2 44.4 327.2 44.4L327.2 44.4Q325.1 44.4 323.5 45.4Q321.9 46.3 321.0 47.9Q320.1 49.5 320.1 51.5L320.1 51.5L320.1 56.8Q320.1 59.2 321.0 61.0Q321.9 62.8 323.6 63.7Q325.3 64.7 327.5 64.7L327.5 64.7Q329.0 64.7 330.3 64.3Q331.6 63.8 332.5 63.0Q333.4 62.1 333.8 60.9L333.8 60.9L342.2 61.4Q341.6 64.5 339.6 66.7Q337.6 69.0 334.5 70.2Q331.4 71.5 327.4 71.5ZM346.8 27.2L355.9 27.2L355.9 70.8L346.8 70.8L346.8 27.2Z M418.1 42.5L418.1 42.5L408.8 42.5Q408.5 40.6 407.7 39.2Q406.9 37.8 405.7 36.8Q404.5 35.8 402.8 35.3Q401.2 34.7 399.4 34.7L399.4 34.7Q396.0 34.7 393.5 36.4Q390.9 38.1 389.6 41.3Q388.2 44.5 388.2 49.0L388.2 49.0Q388.2 53.7 389.6 56.8Q391.0 60.0 393.5 61.6Q396.0 63.3 399.3 63.3L399.3 63.3Q401.1 63.3 402.7 62.8Q404.3 62.3 405.6 61.3Q406.8 60.4 407.6 59.0Q408.4 57.7 408.8 55.9L408.8 55.9L418.1 55.9Q417.7 59.0 416.3 61.7Q414.8 64.5 412.4 66.7Q410.0 68.9 406.7 70.1Q403.3 71.4 399.1 71.4L399.1 71.4Q393.3 71.4 388.7 68.8Q384.1 66.1 381.5 61.1Q378.8 56.1 378.8 49.0L378.8 49.0Q378.8 41.9 381.5 36.9Q384.2 31.8 388.8 29.2Q393.4 26.6 399.1 26.6L399.1 26.6Q402.9 26.6 406.2 27.7Q409.4 28.7 412.0 30.8Q414.5 32.8 416.1 35.7Q417.6 38.7 418.1 42.5ZM432.1 51.9L432.1 51.9L432.1 70.8L423.0 70.8L423.0 27.2L431.9 27.2L431.9 43.9L432.2 43.9Q433.4 41.0 435.8 39.3Q438.3 37.7 442.0 37.7L442.0 37.7Q445.4 37.7 448.0 39.1Q450.5 40.6 451.9 43.4Q453.4 46.1 453.3 50.0L453.3 50.0L453.3 70.8L444.3 70.8L444.3 51.6Q444.3 48.6 442.7 46.9Q441.2 45.2 438.4 45.2L438.4 45.2Q436.6 45.2 435.2 46.0Q433.7 46.8 432.9 48.3Q432.1 49.8 432.1 51.9ZM473.9 71.5L473.9 71.5Q468.9 71.5 465.2 69.4Q461.6 67.3 459.6 63.6Q457.7 59.8 457.7 54.6L457.7 54.6Q457.7 49.6 459.6 45.7Q461.6 41.9 465.2 39.8Q468.7 37.7 473.6 37.7L473.6 37.7Q476.8 37.7 479.6 38.7Q482.4 39.7 484.5 41.8Q486.6 43.9 487.8 47.0Q488.9 50.1 488.9 54.3L488.9 54.3L488.9 56.8L461.3 56.8L461.3 51.2L480.4 51.2Q480.4 49.2 479.5 47.7Q478.7 46.2 477.2 45.3Q475.7 44.4 473.7 44.4L473.7 44.4Q471.6 44.4 470.0 45.4Q468.5 46.3 467.6 47.9Q466.7 49.5 466.6 51.5L466.6 51.5L466.6 56.8Q466.6 59.2 467.6 61.0Q468.5 62.8 470.1 63.7Q471.8 64.7 474.1 64.7L474.1 64.7Q475.6 64.7 476.8 64.3Q478.1 63.8 479.0 63.0Q479.9 62.1 480.3 60.9L480.3 60.9L488.7 61.4Q488.1 64.5 486.1 66.7Q484.2 69.0 481.1 70.2Q478.0 71.5 473.9 71.5ZM508.1 71.5L508.1 71.5Q503.1 71.5 499.5 69.3Q495.9 67.2 494.0 63.4Q492.0 59.5 492.0 54.6L492.0 54.6Q492.0 49.6 494.0 45.8Q495.9 41.9 499.5 39.8Q503.1 37.7 508.1 37.7L508.1 37.7Q512.4 37.7 515.6 39.2Q518.8 40.8 520.7 43.6Q522.6 46.4 522.8 50.2L522.8 50.2L514.2 50.2Q513.8 47.7 512.3 46.2Q510.7 44.7 508.3 44.7L508.3 44.7Q506.1 44.7 504.6 45.9Q503.0 47.0 502.1 49.2Q501.3 51.4 501.3 54.5L501.3 54.5Q501.3 57.6 502.1 59.8Q503.0 62.0 504.6 63.1Q506.1 64.3 508.3 64.3L508.3 64.3Q509.8 64.3 511.1 63.6Q512.3 63.0 513.1 61.8Q513.9 60.5 514.2 58.8L514.2 58.8L522.8 58.8Q522.5 62.6 520.7 65.4Q518.9 68.3 515.7 69.9Q512.5 71.5 508.1 71.5ZM541.3 54.5L535.3 61.4L535.3 50.5L536.7 50.5L547.2 38.1L557.6 38.1L543.5 54.5L541.3 54.5ZM536.2 70.8L527.1 70.8L527.1 27.2L536.2 27.2L536.2 70.8ZM558.2 70.8L547.6 70.8L537.9 56.6L544.0 50.2L558.2 70.8ZM574.1 71.5L574.1 71.5Q569.0 71.5 565.4 69.4Q561.7 67.3 559.8 63.6Q557.8 59.8 557.8 54.6L557.8 54.6Q557.8 49.6 559.8 45.7Q561.7 41.9 565.3 39.8Q568.9 37.7 573.7 37.7L573.7 37.7Q576.9 37.7 579.7 38.7Q582.5 39.7 584.6 41.8Q586.7 43.9 587.9 47.0Q589.1 50.1 589.1 54.3L589.1 54.3L589.1 56.8L561.4 56.8L561.4 51.2L580.5 51.2Q580.5 49.2 579.7 47.7Q578.8 46.2 577.3 45.3Q575.8 44.4 573.8 44.4L573.8 44.4Q571.8 44.4 570.2 45.4Q568.6 46.3 567.7 47.9Q566.8 49.5 566.8 51.5L566.8 51.5L566.8 56.8Q566.8 59.2 567.7 61.0Q568.6 62.8 570.3 63.7Q571.9 64.7 574.2 64.7L574.2 64.7Q575.7 64.7 577.0 64.3Q578.2 63.8 579.1 63.0Q580.0 62.1 580.5 60.9L580.5 60.9L588.9 61.4Q588.2 64.5 586.3 66.7Q584.3 69.0 581.2 70.2Q578.1 71.5 574.1 71.5ZM602.6 70.8L593.5 70.8L593.5 38.1L602.3 38.1L602.3 43.8L602.6 43.8Q603.5 40.8 605.6 39.2Q607.8 37.6 610.5 37.6L610.5 37.6Q611.2 37.6 612.0 37.7Q612.8 37.8 613.4 37.9L613.4 37.9L613.4 46.0Q612.7 45.8 611.6 45.7Q610.5 45.5 609.5 45.5L609.5 45.5Q607.5 45.5 606.0 46.4Q604.4 47.2 603.5 48.8Q602.6 50.3 602.6 52.3L602.6 52.3L602.6 70.8Z "/><mask id="satori_om-id-0-0-0-1"><rect x="186" y="95" width="429" height="40" fill="#fff"/></mask><path fill="#4f46e5" d="M206.0 128.1L188.3 128.1L188.3 101.9L205.9 101.9L205.9 106.5L193.8 106.5L193.8 112.7L205.0 112.7L205.0 117.3L193.8 117.3L193.8 123.5L206.0 123.5L206.0 128.1ZM214.8 116.7L214.8 116.7L214.8 128.1L209.3 128.1L209.3 108.5L214.5 108.5L214.5 111.9L214.7 111.9Q215.4 110.2 216.9 109.2Q218.5 108.2 220.7 108.2L220.7 108.2Q222.7 108.2 224.2 109.1Q225.7 110.0 226.6 111.6Q227.4 113.3 227.4 115.6L227.4 115.6L227.4 128.1L222.0 128.1L222.0 116.6Q222.0 114.8 221.1 113.7Q220.1 112.7 218.5 112.7L218.5 112.7Q217.4 112.7 216.6 113.2Q215.7 113.7 215.3 114.6Q214.8 115.5 214.8 116.7ZM239.7 135.9L239.7 135.9Q237.0 135.9 235.1 135.1Q233.2 134.4 232.1 133.2Q231.0 131.9 230.7 130.4L230.7 130.4L235.7 129.7Q235.9 130.3 236.4 130.8Q236.9 131.3 237.8 131.6Q238.6 132.0 239.8 132.0L239.8 132.0Q241.6 132.0 242.7 131.1Q243.9 130.2 243.9 128.2L243.9 128.2L243.9 124.6L243.6 124.6Q243.3 125.4 242.6 126.2Q241.9 126.9 240.7 127.3Q239.6 127.8 238.0 127.8L238.0 127.8Q235.8 127.8 234.0 126.8Q232.2 125.8 231.1 123.6Q230.1 121.5 230.1 118.2L230.1 118.2Q230.1 114.9 231.2 112.7Q232.3 110.4 234.1 109.3Q235.9 108.2 238.0 108.2L238.0 108.2Q239.7 108.2 240.8 108.8Q241.9 109.3 242.6 110.1Q243.3 111.0 243.6 111.8L243.6 111.8L243.9 111.8L243.9 108.5L249.3 108.5L249.3 128.3Q249.3 130.8 248.0 132.5Q246.8 134.2 244.6 135.0Q242.5 135.9 239.7 135.9ZM239.8 123.7L239.8 123.7Q241.1 123.7 242.0 123.1Q242.9 122.4 243.4 121.2Q243.9 119.9 243.9 118.2L243.9 118.2Q243.9 116.5 243.4 115.2Q242.9 113.9 242.0 113.2Q241.1 112.5 239.8 112.5L239.8 112.5Q238.4 112.5 237.5 113.3Q236.6 114.0 236.1 115.3Q235.6 116.5 235.6 118.2L235.6 118.2Q235.6 119.9 236.1 121.1Q236.6 122.4 237.5 123.0Q238.4 123.7 239.8 123.7ZM252.7 101.9L258.2 101.9L258.2 128.1L252.7 128.1L252.7 101.9ZM267.0 128.1L261.6 128.1L261.6 108.5L267.0 108.5L267.0 128.1ZM264.3 105.9L264.3 105.9Q263.1 105.9 262.3 105.1Q261.4 104.3 261.4 103.2L261.4 103.2Q261.4 102.0 262.3 101.2Q263.1 100.4 264.3 100.4L264.3 100.4Q265.5 100.4 266.4 101.2Q267.3 102.0 267.3 103.2L267.3 103.2Q267.3 104.3 266.4 105.1Q265.5 105.9 264.3 105.9ZM286.8 114.1L286.8 114.1L281.8 114.4Q281.7 113.7 281.3 113.2Q280.9 112.7 280.2 112.4Q279.5 112.1 278.6 112.1L278.6 112.1Q277.3 112.1 276.4 112.6Q275.6 113.1 275.6 114.0L275.6 114.0Q275.6 114.7 276.1 115.2Q276.7 115.7 278.0 116.0L278.0 116.0L281.6 116.7Q284.5 117.3 285.9 118.6Q287.3 119.9 287.3 122.0L287.3 122.0Q287.3 123.9 286.1 125.4Q285.0 126.9 283.1 127.7Q281.1 128.5 278.5 128.5L278.5 128.5Q274.6 128.5 272.3 126.8Q270.0 125.2 269.6 122.4L269.6 122.4L275.0 122.1Q275.2 123.3 276.2 123.9Q277.1 124.5 278.5 124.5L278.5 124.5Q280.0 124.5 280.9 124.0Q281.7 123.4 281.7 122.6L281.7 122.6Q281.7 121.8 281.1 121.3Q280.5 120.9 279.2 120.6L279.2 120.6L275.8 119.9Q272.9 119.3 271.5 117.9Q270.1 116.5 270.1 114.3L270.1 114.3Q270.1 112.4 271.2 111.0Q272.2 109.7 274.1 108.9Q275.9 108.2 278.5 108.2L278.5 108.2Q282.2 108.2 284.3 109.8Q286.5 111.3 286.8 114.1ZM295.3 116.7L295.3 116.7L295.3 128.1L289.8 128.1L289.8 101.9L295.1 101.9L295.1 111.9L295.3 111.9Q296.0 110.2 297.5 109.2Q299.0 108.2 301.2 108.2L301.2 108.2Q303.3 108.2 304.8 109.1Q306.3 110.0 307.2 111.6Q308.0 113.3 308.0 115.6L308.0 115.6L308.0 128.1L302.5 128.1L302.5 116.6Q302.6 114.7 301.6 113.7Q300.7 112.7 299.0 112.7L299.0 112.7Q297.9 112.7 297.1 113.2Q296.2 113.7 295.8 114.6Q295.3 115.5 295.3 116.7Z M335.7 128.1L318.9 128.1L318.9 101.9L324.5 101.9L324.5 123.5L335.7 123.5L335.7 128.1ZM344.0 128.5L344.0 128.5Q342.1 128.5 340.6 127.8Q339.1 127.1 338.3 125.8Q337.4 124.5 337.4 122.6L337.4 122.6Q337.4 121.0 338.0 119.9Q338.6 118.7 339.7 118.1Q340.7 117.4 342.0 117.0Q343.4 116.7 344.8 116.6L344.8 116.6Q346.5 116.4 347.6 116.2Q348.6 116.1 349.1 115.7Q349.6 115.4 349.6 114.8L349.6 114.8L349.6 114.7Q349.6 113.5 348.8 112.8Q348.1 112.2 346.7 112.2L346.7 112.2Q345.2 112.2 344.3 112.8Q343.5 113.5 343.2 114.4L343.2 114.4L338.1 114.0Q338.5 112.2 339.6 110.9Q340.8 109.6 342.6 108.9Q344.3 108.2 346.7 108.2L346.7 108.2Q348.3 108.2 349.8 108.6Q351.3 109.0 352.5 109.8Q353.7 110.6 354.3 111.8Q355.0 113.1 355.0 114.8L355.0 114.8L355.0 128.1L349.9 128.1L349.9 125.4L349.7 125.4Q349.2 126.3 348.4 127.0Q347.6 127.7 346.5 128.1Q345.4 128.5 344.0 128.5ZM345.5 124.7L345.5 124.7Q346.7 124.7 347.6 124.2Q348.6 123.7 349.1 122.9Q349.6 122.1 349.6 121.1L349.6 121.1L349.6 119.0Q349.4 119.2 348.9 119.3Q348.5 119.4 347.9 119.5Q347.4 119.6 346.8 119.7Q346.3 119.8 345.8 119.9L345.8 119.9Q344.9 120.0 344.2 120.3Q343.4 120.6 343.0 121.1Q342.6 121.7 342.6 122.4L342.6 122.4Q342.6 123.5 343.5 124.1Q344.3 124.7 345.5 124.7ZM363.8 116.7L363.8 116.7L363.8 128.1L358.4 128.1L358.4 108.5L363.5 108.5L363.5 111.9L363.8 111.9Q364.4 110.2 366.0 109.2Q367.5 108.2 369.7 108.2L369.7 108.2Q371.7 108.2 373.2 109.1Q374.8 110.0 375.6 111.6Q376.5 113.3 376.5 115.6L376.5 115.6L376.5 128.1L371.0 128.1L371.0 116.6Q371.0 114.8 370.1 113.7Q369.2 112.7 367.5 112.7L367.5 112.7Q366.4 112.7 365.6 113.2Q364.7 113.7 364.3 114.6Q363.8 115.5 363.8 116.7ZM388.7 135.9L388.7 135.9Q386.0 135.9 384.2 135.1Q382.3 134.4 381.2 133.2Q380.0 131.9 379.7 130.4L379.7 130.4L384.7 129.7Q385.0 130.3 385.5 130.8Q386.0 131.3 386.8 131.6Q387.6 132.0 388.8 132.0L388.8 132.0Q390.6 132.0 391.7 131.1Q392.9 130.2 392.9 128.2L392.9 128.2L392.9 124.6L392.7 124.6Q392.3 125.4 391.6 126.2Q390.9 126.9 389.8 127.3Q388.6 127.8 387.1 127.8L387.1 127.8Q384.9 127.8 383.1 126.8Q381.2 125.8 380.2 123.6Q379.1 121.5 379.1 118.2L379.1 118.2Q379.1 114.9 380.2 112.7Q381.3 110.4 383.1 109.3Q384.9 108.2 387.1 108.2L387.1 108.2Q388.7 108.2 389.8 108.8Q390.9 109.3 391.6 110.1Q392.3 111.0 392.7 111.8L392.7 111.8L392.9 111.8L392.9 108.5L398.3 108.5L398.3 128.3Q398.3 130.8 397.1 132.5Q395.8 134.2 393.7 135.0Q391.5 135.9 388.7 135.9ZM388.8 123.7L388.8 123.7Q390.1 123.7 391.0 123.1Q391.9 122.4 392.4 121.2Q392.9 119.9 392.9 118.2L392.9 118.2Q392.9 116.5 392.4 115.2Q392.0 113.9 391.0 113.2Q390.1 112.5 388.8 112.5L388.8 112.5Q387.5 112.5 386.5 113.3Q385.6 114.0 385.1 115.3Q384.7 116.5 384.7 118.2L384.7 118.2Q384.7 119.9 385.2 121.1Q385.6 122.4 386.5 123.0Q387.5 123.7 388.8 123.7ZM414.3 119.7L414.3 119.7L414.3 108.5L419.8 108.5L419.8 128.1L414.5 128.1L414.5 124.5L414.3 124.5Q413.7 126.3 412.1 127.3Q410.6 128.3 408.4 128.3L408.4 128.3Q406.4 128.3 404.9 127.5Q403.4 126.6 402.6 124.9Q401.7 123.3 401.7 121.0L401.7 121.0L401.7 108.5L407.2 108.5L407.2 120.0Q407.2 121.7 408.1 122.7Q409.0 123.7 410.6 123.7L410.6 123.7Q411.6 123.7 412.4 123.3Q413.3 122.8 413.8 121.9Q414.3 121.0 414.3 119.7ZM428.8 128.5L428.8 128.5Q426.9 128.5 425.5 127.8Q424.0 127.1 423.1 125.8Q422.3 124.5 422.3 122.6L422.3 122.6Q422.3 121.0 422.9 119.9Q423.5 118.7 424.5 118.1Q425.6 117.4 426.9 117.0Q428.2 116.7 429.7 116.6L429.7 116.6Q431.4 116.4 432.4 116.2Q433.5 116.1 434.0 115.7Q434.4 115.4 434.4 114.8L434.4 114.8L434.4 114.7Q434.4 113.5 433.7 112.8Q432.9 112.2 431.5 112.2L431.5 112.2Q430.0 112.2 429.2 112.8Q428.3 113.5 428.0 114.4L428.0 114.4L423.0 114.0Q423.4 112.2 424.5 110.9Q425.6 109.6 427.4 108.9Q429.2 108.2 431.5 108.2L431.5 108.2Q433.2 108.2 434.7 108.6Q436.2 109.0 437.4 109.8Q438.5 110.6 439.2 111.8Q439.9 113.1 439.9 114.8L439.9 114.8L439.9 128.1L434.7 128.1L434.7 125.4L434.6 125.4Q434.1 126.3 433.3 127.0Q432.5 127.7 431.4 128.1Q430.3 128.5 428.8 128.5ZM430.4 124.7L430.4 124.7Q431.6 124.7 432.5 124.2Q433.4 123.7 433.9 122.9Q434.5 122.1 434.5 121.1L434.5 121.1L434.5 119.0Q434.2 119.2 433.8 119.3Q433.3 119.4 432.8 119.5Q432.2 119.6 431.7 119.7Q431.1 119.8 430.7 119.9L430.7 119.9Q429.7 120.0 429.0 120.3Q428.3 120.6 427.9 121.1Q427.5 121.7 427.5 122.4L427.5 122.4Q427.5 123.5 428.3 124.1Q429.1 124.7 430.4 124.7ZM452.1 135.9L452.1 135.9Q449.4 135.9 447.5 135.1Q445.6 134.4 444.5 133.2Q443.4 131.9 443.1 130.4L443.1 130.4L448.1 129.7Q448.3 130.3 448.8 130.8Q449.3 131.3 450.2 131.6Q451.0 132.0 452.2 132.0L452.2 132.0Q454.0 132.0 455.1 131.1Q456.3 130.2 456.3 128.2L456.3 128.2L456.3 124.6L456.0 124.6Q455.7 125.4 455.0 126.2Q454.3 126.9 453.1 127.3Q452.0 127.8 450.4 127.8L450.4 127.8Q448.2 127.8 446.4 126.8Q444.6 125.8 443.5 123.6Q442.5 121.5 442.5 118.2L442.5 118.2Q442.5 114.9 443.6 112.7Q444.7 110.4 446.5 109.3Q448.3 108.2 450.4 108.2L450.4 108.2Q452.1 108.2 453.2 108.8Q454.3 109.3 455.0 110.1Q455.7 111.0 456.0 111.8L456.0 111.8L456.2 111.8L456.2 108.5L461.7 108.5L461.7 128.3Q461.7 130.8 460.4 132.5Q459.2 134.2 457.0 135.0Q454.9 135.9 452.1 135.9ZM452.2 123.7L452.2 123.7Q453.5 123.7 454.4 123.1Q455.3 122.4 455.8 121.2Q456.3 119.9 456.3 118.2L456.3 118.2Q456.3 116.5 455.8 115.2Q455.3 113.9 454.4 113.2Q453.5 112.5 452.2 112.5L452.2 112.5Q450.8 112.5 449.9 113.3Q449.0 114.0 448.5 115.3Q448.0 116.5 448.0 118.2L448.0 118.2Q448.0 119.9 448.5 121.1Q449.0 122.4 449.9 123.0Q450.8 123.7 452.2 123.7ZM474.1 128.5L474.1 128.5Q471.0 128.5 468.8 127.2Q466.7 126.0 465.5 123.7Q464.3 121.5 464.3 118.4L464.3 118.4Q464.3 115.3 465.5 113.0Q466.7 110.8 468.8 109.5Q470.9 108.2 473.8 108.2L473.8 108.2Q475.8 108.2 477.5 108.8Q479.1 109.4 480.4 110.7Q481.7 111.9 482.4 113.8Q483.1 115.7 483.1 118.2L483.1 118.2L483.1 119.7L466.5 119.7L466.5 116.3L477.9 116.3Q477.9 115.1 477.4 114.2Q476.9 113.3 476.0 112.8Q475.1 112.3 473.9 112.3L473.9 112.3Q472.7 112.3 471.7 112.8Q470.8 113.4 470.2 114.4Q469.7 115.3 469.7 116.5L469.7 116.5L469.7 119.7Q469.7 121.1 470.2 122.2Q470.8 123.3 471.8 123.8Q472.8 124.4 474.1 124.4L474.1 124.4Q475.0 124.4 475.8 124.2Q476.6 123.9 477.1 123.4Q477.6 122.9 477.9 122.1L477.9 122.1L482.9 122.5Q482.6 124.3 481.4 125.6Q480.2 127.0 478.3 127.7Q476.5 128.5 474.1 128.5Z M500.3 106.5L492.3 106.5L492.3 101.9L513.8 101.9L513.8 106.5L505.8 106.5L505.8 128.1L500.3 128.1L500.3 106.5ZM522.3 128.5L522.3 128.5Q519.4 128.5 517.2 127.2Q515.0 125.9 513.8 123.6Q512.7 121.4 512.7 118.3L512.7 118.3Q512.7 115.3 513.8 113.0Q515.0 110.7 517.2 109.5Q519.4 108.2 522.3 108.2L522.3 108.2Q525.3 108.2 527.5 109.5Q529.6 110.7 530.8 113.0Q532.0 115.3 532.0 118.3L532.0 118.3Q532.0 121.4 530.8 123.6Q529.6 125.9 527.5 127.2Q525.3 128.5 522.3 128.5ZM522.4 124.3L522.4 124.3Q523.7 124.3 524.6 123.5Q525.5 122.7 526.0 121.4Q526.5 120.0 526.5 118.3L526.5 118.3Q526.5 116.6 526.0 115.3Q525.5 113.9 524.6 113.1Q523.7 112.4 522.4 112.4L522.4 112.4Q521.0 112.4 520.1 113.1Q519.1 113.9 518.7 115.3Q518.2 116.6 518.2 118.3L518.2 118.3Q518.2 120.0 518.7 121.4Q519.1 122.7 520.1 123.5Q521.0 124.3 522.4 124.3ZM543.5 128.5L543.5 128.5Q540.5 128.5 538.4 127.2Q536.2 125.9 535.0 123.6Q533.9 121.4 533.9 118.3L533.9 118.3Q533.9 115.3 535.0 113.0Q536.2 110.7 538.4 109.5Q540.5 108.2 543.5 108.2L543.5 108.2Q546.5 108.2 548.7 109.5Q550.8 110.7 552.0 113.0Q553.2 115.3 553.2 118.3L553.2 118.3Q553.2 121.4 552.0 123.6Q550.8 125.9 548.7 127.2Q546.5 128.5 543.5 128.5ZM543.6 124.3L543.6 124.3Q544.9 124.3 545.8 123.5Q546.7 122.7 547.2 121.4Q547.7 120.0 547.7 118.3L547.7 118.3Q547.7 116.6 547.2 115.3Q546.7 113.9 545.8 113.1Q544.9 112.4 543.6 112.4L543.6 112.4Q542.2 112.4 541.3 113.1Q540.3 113.9 539.9 115.3Q539.4 116.6 539.4 118.3L539.4 118.3Q539.4 120.0 539.9 121.4Q540.3 122.7 541.3 123.5Q542.2 124.3 543.6 124.3ZM555.8 101.9L561.3 101.9L561.3 128.1L555.8 128.1L555.8 101.9Z "/><mask id="satori_om-id-0-0-1"><rect x="200" y="199" width="400" height="80" fill="#fff"/></mask><defs><clipPath id="satori_bc-id-0-0-1-0"><path x="200" y="199" width="80" height="80" d="M208,199 h64 a8,8 0 0 1 8,8 v64 a8,8 0 0 1 -8,8 h-64 a8,8 0 0 1 -8,-8 v-64 a8,8 0 0 1 8,-8"/></clipPath></defs><mask id="satori_ms-id-0-0-1-0-1" maskUnits="userSpaceOnUse"><rect x="0" y="0" width="800" height="400" fill="#fff"/><path x="200" y="199" width="80" height="80" fill="#000"  stroke-width="-8" d="M208,199 h64 a8,8 0 0 1 8,8 v64 a8,8 0 0 1 -8,8 h-64 a8,8 0 0 1 -8,-8 v-64 a8,8 0 0 1 8,-8"/></mask><mask id="satori_ms-id-0-0-1-0-1-neg" maskUnits="userSpaceOnUse"><path x="200" y="203" width="80" height="80" fill="#fff" stroke="#000" stroke-width="8" d="M208,203 h64 a8,8 0 0 1 8,8 v64 a8,8 0 0 1 -8,8 h-64 a8,8 0 0 1 -8,-8 v-64 a8,8 0 0 1 8,-8"/></mask><defs><filter id="satori_s-id-0-0-1-0-1" x="-6.25%" y="-6.25%" width="112.5%" height="112.5%"><feGaussianBlur stdDeviation="3" result="b"/><feFlood flood-color="rgba(0, 0, 0, 0.1)" in="SourceGraphic" result="f"/><feComposite in="f" in2="b" operator="in"/></filter></defs><g mask="url(#satori_ms-id-0-0-1-0-1)" filter="url(#satori_s-id-0-0-1-0-1)" opacity="1"><g mask="url(#satori_ms-id-0-0-1-0-1-neg)"><path x="200" y="203" width="80" height="80" fill="#fff" stroke="#fff" stroke-width="-8" d="M208,203 h64 a8,8 0 0 1 8,8 v64 a8,8 0 0 1 -8,8 h-64 a8,8 0 0 1 -8,-8 v-64 a8,8 0 0 1 8,-8"/></g></g><mask id="satori_ms-id-0-0-1-0-0" maskUnits="userSpaceOnUse"><rect x="0" y="0" width="800" height="400" fill="#fff"/><path x="200" y="199" width="80" height="80" fill="#000"  stroke-width="-6" d="M208,199 h64 a8,8 0 0 1 8,8 v64 a8,8 0 0 1 -8,8 h-64 a8,8 0 0 1 -8,-8 v-64 a8,8 0 0 1 8,-8"/></mask><mask id="satori_ms-id-0-0-1-0-0-neg" maskUnits="userSpaceOnUse"><path x="200" y="209" width="80" height="80" fill="#fff" stroke="#000" stroke-width="6" d="M208,209 h64 a8,8 0 0 1 8,8 v64 a8,8 0 0 1 -8,8 h-64 a8,8 0 0 1 -8,-8 v-64 a8,8 0 0 1 8,-8"/></mask><defs><filter id="satori_s-id-0-0-1-0-0" x="-66.5625%" y="-66.5625%" width="233.12499999999997%" height="233.12499999999997%"><feGaussianBlur stdDeviation="7.5" result="b"/><feFlood flood-color="rgba(0, 0, 0, 0.1)" in="SourceGraphic" result="f"/><feComposite in="f" in2="b" operator="in"/></filter></defs><g mask="url(#satori_ms-id-0-0-1-0-0)" filter="url(#satori_s-id-0-0-1-0-0)" opacity="1"><g mask="url(#satori_ms-id-0-0-1-0-0-neg)"><path x="200" y="209" width="80" height="80" fill="#fff" stroke="#fff" stroke-width="-6" d="M208,209 h64 a8,8 0 0 1 8,8 v64 a8,8 0 0 1 -8,8 h-64 a8,8 0 0 1 -8,-8 v-64 a8,8 0 0 1 8,-8"/></g></g><mask id="satori_om-id-0-0-1-0"><rect x="201" y="200" width="78" height="78" fill="#fff"/><path width="80" height="80" fill="none" stroke="#000" stroke-width="2" d="M202.343,201.343 A8,8 0 0 1 208,199 h64 a8,8 0 0 1 8,8 v64 a8,8 0 0 1 -8,8 h-64 a8,8 0 0 1 -8,-8 v-64 A8,8 0 0 1 202.343,201.343"/></mask><path x="200" y="199" width="80" height="80" fill="#fff" d="M208,199 h64 a8,8 0 0 1 8,8 v64 a8,8 0 0 1 -8,8 h-64 a8,8 0 0 1 -8,-8 v-64 a8,8 0 0 1 8,-8"/><path width="80" height="80" clip-path="url(#satori_bc-id-0-0-1-0)" fill="none" stroke="#e5e7eb" stroke-width="2" d="M202.343,201.343 A8,8 0 0 1 208,199 h64 a8,8 0 0 1 8,8 v64 a8,8 0 0 1 -8,8 h-64 a8,8 0 0 1 -8,-8 v-64 A8,8 0 0 1 202.343,201.343"/><mask id="satori_om-id-0-0-1-0-0"><rect x="227" y="219" width="27" height="40" fill="#fff"/></mask><path fill="#4f46e5" d="M240.4 231.9L233.8 252.1L227.9 252.1L236.9 225.9L244.0 225.9L253.1 252.1L247.1 252.1L240.6 231.9L240.4 231.9ZM233.4 246.1L233.4 241.8L247.4 241.8L247.4 246.1L233.4 246.1Z "/><defs><clipPath id="satori_bc-id-0-0-1-1"><path x="280" y="199" width="80" height="80" d="M288,199 h64 a8,8 0 0 1 8,8 v64 a8,8 0 0 1 -8,8 h-64 a8,8 0 0 1 -8,-8 v-64 a8,8 0 0 1 8,-8"/></clipPath></defs><mask id="satori_ms-id-0-0-1-1-1" maskUnits="userSpaceOnUse"><rect x="0" y="0" width="800" height="400" fill="#fff"/><path x="280" y="199" width="80" height="80" fill="#000"  stroke-width="-8" d="M288,199 h64 a8,8 0 0 1 8,8 v64 a8,8 0 0 1 -8,8 h-64 a8,8 0 0 1 -8,-8 v-64 a8,8 0 0 1 8,-8"/></mask><mask id="satori_ms-id-0-0-1-1-1-neg" maskUnits="userSpaceOnUse"><path x="280" y="203" width="80" height="80" fill="#fff" stroke="#000" stroke-width="8" d="M288,203 h64 a8,8 0 0 1 8,8 v64 a8,8 0 0 1 -8,8 h-64 a8,8 0 0 1 -8,-8 v-64 a8,8 0 0 1 8,-8"/></mask><defs><filter id="satori_s-id-0-0-1-1-1" x="-6.25%" y="-6.25%" width="112.5%" height="112.5%"><feGaussianBlur stdDeviation="3" result="b"/><feFlood flood-color="rgba(0, 0, 0, 0.1)" in="SourceGraphic" result="f"/><feComposite in="f" in2="b" operator="in"/></filter></defs><g mask="url(#satori_ms-id-0-0-1-1-1)" filter="url(#satori_s-id-0-0-1-1-1)" opacity="1"><g mask="url(#satori_ms-id-0-0-1-1-1-neg)"><path x="280" y="203" width="80" height="80" fill="#fff" stroke="#fff" stroke-width="-8" d="M288,203 h64 a8,8 0 0 1 8,8 v64 a8,8 0 0 1 -8,8 h-64 a8,8 0 0 1 -8,-8 v-64 a8,8 0 0 1 8,-8"/></g></g><mask id="satori_ms-id-0-0-1-1-0" maskUnits="userSpaceOnUse"><rect x="0" y="0" width="800" height="400" fill="#fff"/><path x="280" y="199" width="80" height="80" fill="#000"  stroke-width="-6" d="M288,199 h64 a8,8 0 0 1 8,8 v64 a8,8 0 0 1 -8,8 h-64 a8,8 0 0 1 -8,-8 v-64 a8,8 0 0 1 8,-8"/></mask><mask id="satori_ms-id-0-0-1-1-0-neg" maskUnits="userSpaceOnUse"><path x="280" y="209" width="80" height="80" fill="#fff" stroke="#000" stroke-width="6" d="M288,209 h64 a8,8 0 0 1 8,8 v64 a8,8 0 0 1 -8,8 h-64 a8,8 0 0 1 -8,-8 v-64 a8,8 0 0 1 8,-8"/></mask><defs><filter id="satori_s-id-0-0-1-1-0" x="-66.5625%" y="-66.5625%" width="233.12499999999997%" height="233.12499999999997%"><feGaussianBlur stdDeviation="7.5" result="b"/><feFlood flood-color="rgba(0, 0, 0, 0.1)" in="SourceGraphic" result="f"/><feComposite in="f" in2="b" operator="in"/></filter></defs><g mask="url(#satori_ms-id-0-0-1-1-0)" filter="url(#satori_s-id-0-0-1-1-0)" opacity="1"><g mask="url(#satori_ms-id-0-0-1-1-0-neg)"><path x="280" y="209" width="80" height="80" fill="#fff" stroke="#fff" stroke-width="-6" d="M288,209 h64 a8,8 0 0 1 8,8 v64 a8,8 0 0 1 -8,8 h-64 a8,8 0 0 1 -8,-8 v-64 a8,8 0 0 1 8,-8"/></g></g><mask id="satori_om-id-0-0-1-1"><rect x="281" y="200" width="78" height="78" fill="#fff"/><path width="80" height="80" fill="none" stroke="#000" stroke-width="2" d="M282.343,201.343 A8,8 0 0 1 288,199 h64 a8,8 0 0 1 8,8 v64 a8,8 0 0 1 -8,8 h-64 a8,8 0 0 1 -8,-8 v-64 A8,8 0 0 1 282.343,201.343"/></mask><path x="280" y="199" width="80" height="80" fill="#fff" d="M288,199 h64 a8,8 0 0 1 8,8 v64 a8,8 0 0 1 -8,8 h-64 a8,8 0 0 1 -8,-8 v-64 a8,8 0 0 1 8,-8"/><path width="80" height="80" clip-path="url(#satori_bc-id-0-0-1-1)" fill="none" stroke="#e5e7eb" stroke-width="2" d="M282.343,201.343 A8,8 0 0 1 288,199 h64 a8,8 0 0 1 8,8 v64 a8,8 0 0 1 -8,8 h-64 a8,8 0 0 1 -8,-8 v-64 A8,8 0 0 1 282.343,201.343"/><mask id="satori_om-id-0-0-1-1-0"><rect x="309" y="219" width="23" height="40" fill="#fff"/></mask><path fill="#4f46e5" d="M329.0 252.1L311.3 252.1L311.3 225.9L328.9 225.9L328.9 230.5L316.8 230.5L316.8 236.7L328.0 236.7L328.0 241.3L316.8 241.3L316.8 247.5L329.0 247.5L329.0 252.1Z "/><defs><clipPath id="satori_bc-id-0-0-1-2"><path x="360" y="199" width="80" height="80" d="M368,199 h64 a8,8 0 0 1 8,8 v64 a8,8 0 0 1 -8,8 h-64 a8,8 0 0 1 -8,-8 v-64 a8,8 0 0 1 8,-8"/></clipPath></defs><mask id="satori_ms-id-0-0-1-2-1" maskUnits="userSpaceOnUse"><rect x="0" y="0" width="800" height="400" fill="#fff"/><path x="360" y="199" width="80" height="80" fill="#000"  stroke-width="-8" d="M368,199 h64 a8,8 0 0 1 8,8 v64 a8,8 0 0 1 -8,8 h-64 a8,8 0 0 1 -8,-8 v-64 a8,8 0 0 1 8,-8"/></mask><mask id="satori_ms-id-0-0-1-2-1-neg" maskUnits="userSpaceOnUse"><path x="360" y="203" width="80" height="80" fill="#fff" stroke="#000" stroke-width="8" d="M368,203 h64 a8,8 0 0 1 8,8 v64 a8,8 0 0 1 -8,8 h-64 a8,8 0 0 1 -8,-8 v-64 a8,8 0 0 1 8,-8"/></mask><defs><filter id="satori_s-id-0-0-1-2-1" x="-6.25%" y="-6.25%" width="112.5%" height="112.5%"><feGaussianBlur stdDeviation="3" result="b"/><feFlood flood-color="rgba(0, 0, 0, 0.1)" in="SourceGraphic" result="f"/><feComposite in="f" in2="b" operator="in"/></filter></defs><g mask="url(#satori_ms-id-0-0-1-2-1)" filter="url(#satori_s-id-0-0-1-2-1)" opacity="1"><g mask="url(#satori_ms-id-0-0-1-2-1-neg)"><path x="360" y="203" width="80" height="80" fill="#fff" stroke="#fff" stroke-width="-8" d="M368,203 h64 a8,8 0 0 1 8,8 v64 a8,8 0 0 1 -8,8 h-64 a8,8 0 0 1 -8,-8 v-64 a8,8 0 0 1 8,-8"/></g></g><mask id="satori_ms-id-0-0-1-2-0" maskUnits="userSpaceOnUse"><rect x="0" y="0" width="800" height="400" fill="#fff"/><path x="360" y="199" width="80" height="80" fill="#000"  stroke-width="-6" d="M368,199 h64 a8,8 0 0 1 8,8 v64 a8,8 0 0 1 -8,8 h-64 a8,8 0 0 1 -8,-8 v-64 a8,8 0 0 1 8,-8"/></mask><mask id="satori_ms-id-0-0-1-2-0-neg" maskUnits="userSpaceOnUse"><path x="360" y="209" width="80" height="80" fill="#fff" stroke="#000" stroke-width="6" d="M368,209 h64 a8,8 0 0 1 8,8 v64 a8,8 0 0 1 -8,8 h-64 a8,8 0 0 1 -8,-8 v-64 a8,8 0 0 1 8,-8"/></mask><defs><filter id="satori_s-id-0-0-1-2-0" x="-66.5625%" y="-66.5625%" width="233.12499999999997%" height="233.12499999999997%"><feGaussianBlur stdDeviation="7.5" result="b"/><feFlood flood-color="rgba(0, 0, 0, 0.1)" in="SourceGraphic" result="f"/><feComposite in="f" in2="b" operator="in"/></filter></defs><g mask="url(#satori_ms-id-0-0-1-2-0)" filter="url(#satori_s-id-0-0-1-2-0)" opacity="1"><g mask="url(#satori_ms-id-0-0-1-2-0-neg)"><path x="360" y="209" width="80" height="80" fill="#fff" stroke="#fff" stroke-width="-6" d="M368,209 h64 a8,8 0 0 1 8,8 v64 a8,8 0 0 1 -8,8 h-64 a8,8 0 0 1 -8,-8 v-64 a8,8 0 0 1 8,-8"/></g></g><mask id="satori_om-id-0-0-1-2"><rect x="361" y="200" width="78" height="78" fill="#fff"/><path width="80" height="80" fill="none" stroke="#000" stroke-width="2" d="M362.343,201.343 A8,8 0 0 1 368,199 h64 a8,8 0 0 1 8,8 v64 a8,8 0 0 1 -8,8 h-64 a8,8 0 0 1 -8,-8 v-64 A8,8 0 0 1 362.343,201.343"/></mask><path x="360" y="199" width="80" height="80" fill="#fff" d="M368,199 h64 a8,8 0 0 1 8,8 v64 a8,8 0 0 1 -8,8 h-64 a8,8 0 0 1 -8,-8 v-64 a8,8 0 0 1 8,-8"/><path width="80" height="80" clip-path="url(#satori_bc-id-0-0-1-2)" fill="none" stroke="#e5e7eb" stroke-width="2" d="M362.343,201.343 A8,8 0 0 1 368,199 h64 a8,8 0 0 1 8,8 v64 a8,8 0 0 1 -8,8 h-64 a8,8 0 0 1 -8,-8 v-64 A8,8 0 0 1 362.343,201.343"/><mask id="satori_om-id-0-0-1-2-0"><rect x="395" y="219" width="11" height="40" fill="#fff"/></mask><path fill="#4f46e5" d="M397.3 225.9L402.8 225.9L402.8 252.1L397.3 252.1L397.3 225.9Z "/><defs><clipPath id="satori_bc-id-0-0-1-3"><path x="440" y="199" width="80" height="80" d="M448,199 h64 a8,8 0 0 1 8,8 v64 a8,8 0 0 1 -8,8 h-64 a8,8 0 0 1 -8,-8 v-64 a8,8 0 0 1 8,-8"/></clipPath></defs><mask id="satori_ms-id-0-0-1-3-1" maskUnits="userSpaceOnUse"><rect x="0" y="0" width="800" height="400" fill="#fff"/><path x="440" y="199" width="80" height="80" fill="#000"  stroke-width="-8" d="M448,199 h64 a8,8 0 0 1 8,8 v64 a8,8 0 0 1 -8,8 h-64 a8,8 0 0 1 -8,-8 v-64 a8,8 0 0 1 8,-8"/></mask><mask id="satori_ms-id-0-0-1-3-1-neg" maskUnits="userSpaceOnUse"><path x="440" y="203" width="80" height="80" fill="#fff" stroke="#000" stroke-width="8" d="M448,203 h64 a8,8 0 0 1 8,8 v64 a8,8 0 0 1 -8,8 h-64 a8,8 0 0 1 -8,-8 v-64 a8,8 0 0 1 8,-8"/></mask><defs><filter id="satori_s-id-0-0-1-3-1" x="-6.25%" y="-6.25%" width="112.5%" height="112.5%"><feGaussianBlur stdDeviation="3" result="b"/><feFlood flood-color="rgba(0, 0, 0, 0.1)" in="SourceGraphic" result="f"/><feComposite in="f" in2="b" operator="in"/></filter></defs><g mask="url(#satori_ms-id-0-0-1-3-1)" filter="url(#satori_s-id-0-0-1-3-1)" opacity="1"><g mask="url(#satori_ms-id-0-0-1-3-1-neg)"><path x="440" y="203" width="80" height="80" fill="#fff" stroke="#fff" stroke-width="-8" d="M448,203 h64 a8,8 0 0 1 8,8 v64 a8,8 0 0 1 -8,8 h-64 a8,8 0 0 1 -8,-8 v-64 a8,8 0 0 1 8,-8"/></g></g><mask id="satori_ms-id-0-0-1-3-0" maskUnits="userSpaceOnUse"><rect x="0" y="0" width="800" height="400" fill="#fff"/><path x="440" y="199" width="80" height="80" fill="#000"  stroke-width="-6" d="M448,199 h64 a8,8 0 0 1 8,8 v64 a8,8 0 0 1 -8,8 h-64 a8,8 0 0 1 -8,-8 v-64 a8,8 0 0 1 8,-8"/></mask><mask id="satori_ms-id-0-0-1-3-0-neg" maskUnits="userSpaceOnUse"><path x="440" y="209" width="80" height="80" fill="#fff" stroke="#000" stroke-width="6" d="M448,209 h64 a8,8 0 0 1 8,8 v64 a8,8 0 0 1 -8,8 h-64 a8,8 0 0 1 -8,-8 v-64 a8,8 0 0 1 8,-8"/></mask><defs><filter id="satori_s-id-0-0-1-3-0" x="-66.5625%" y="-66.5625%" width="233.12499999999997%" height="233.12499999999997%"><feGaussianBlur stdDeviation="7.5" result="b"/><feFlood flood-color="rgba(0, 0, 0, 0.1)" in="SourceGraphic" result="f"/><feComposite in="f" in2="b" operator="in"/></filter></defs><g mask="url(#satori_ms-id-0-0-1-3-0)" filter="url(#satori_s-id-0-0-1-3-0)" opacity="1"><g mask="url(#satori_ms-id-0-0-1-3-0-neg)"><path x="440" y="209" width="80" height="80" fill="#fff" stroke="#fff" stroke-width="-6" d="M448,209 h64 a8,8 0 0 1 8,8 v64 a8,8 0 0 1 -8,8 h-64 a8,8 0 0 1 -8,-8 v-64 a8,8 0 0 1 8,-8"/></g></g><mask id="satori_om-id-0-0-1-3"><rect x="441" y="200" width="78" height="78" fill="#fff"/><path width="80" height="80" fill="none" stroke="#000" stroke-width="2" d="M442.343,201.343 A8,8 0 0 1 448,199 h64 a8,8 0 0 1 8,8 v64 a8,8 0 0 1 -8,8 h-64 a8,8 0 0 1 -8,-8 v-64 A8,8 0 0 1 442.343,201.343"/></mask><path x="440" y="199" width="80" height="80" fill="#fff" d="M448,199 h64 a8,8 0 0 1 8,8 v64 a8,8 0 0 1 -8,8 h-64 a8,8 0 0 1 -8,-8 v-64 a8,8 0 0 1 8,-8"/><path width="80" height="80" clip-path="url(#satori_bc-id-0-0-1-3)" fill="none" stroke="#e5e7eb" stroke-width="2" d="M442.343,201.343 A8,8 0 0 1 448,199 h64 a8,8 0 0 1 8,8 v64 a8,8 0 0 1 -8,8 h-64 a8,8 0 0 1 -8,-8 v-64 A8,8 0 0 1 442.343,201.343"/><mask id="satori_om-id-0-0-1-3-0"><rect x="466" y="219" width="29" height="40" fill="#fff"/></mask><path fill="#4f46e5" d="M492.3 239L492.3 239Q492.3 243.3 490.7 246.3Q489.1 249.3 486.3 250.9Q483.5 252.4 480.1 252.4L480.1 252.4Q476.6 252.4 473.8 250.9Q471.0 249.3 469.4 246.3Q467.8 243.3 467.8 239L467.8 239Q467.8 234.7 469.4 231.7Q471.0 228.7 473.8 227.1Q476.6 225.6 480.1 225.6L480.1 225.6Q483.5 225.6 486.3 227.1Q489.1 228.7 490.7 231.7Q492.3 234.7 492.3 239ZM486.7 239L486.7 239Q486.7 236.2 485.9 234.3Q485.1 232.4 483.6 231.4Q482.1 230.4 480.1 230.4L480.1 230.4Q478.1 230.4 476.6 231.4Q475.1 232.4 474.3 234.3Q473.4 236.2 473.4 239L473.4 239Q473.4 241.8 474.3 243.7Q475.1 245.6 476.6 246.6Q478.1 247.6 480.1 247.6L480.1 247.6Q482.1 247.6 483.6 246.6Q485.1 245.6 485.9 243.7Q486.7 241.8 486.7 239Z "/><defs><clipPath id="satori_bc-id-0-0-1-4"><path x="520" y="199" width="80" height="80" d="M528,199 h64 a8,8 0 0 1 8,8 v64 a8,8 0 0 1 -8,8 h-64 a8,8 0 0 1 -8,-8 v-64 a8,8 0 0 1 8,-8"/></clipPath></defs><mask id="satori_ms-id-0-0-1-4-1" maskUnits="userSpaceOnUse"><rect x="0" y="0" width="800" height="400" fill="#fff"/><path x="520" y="199" width="80" height="80" fill="#000"  stroke-width="-8" d="M528,199 h64 a8,8 0 0 1 8,8 v64 a8,8 0 0 1 -8,8 h-64 a8,8 0 0 1 -8,-8 v-64 a8,8 0 0 1 8,-8"/></mask><mask id="satori_ms-id-0-0-1-4-1-neg" maskUnits="userSpaceOnUse"><path x="520" y="203" width="80" height="80" fill="#fff" stroke="#000" stroke-width="8" d="M528,203 h64 a8,8 0 0 1 8,8 v64 a8,8 0 0 1 -8,8 h-64 a8,8 0 0 1 -8,-8 v-64 a8,8 0 0 1 8,-8"/></mask><defs><filter id="satori_s-id-0-0-1-4-1" x="-6.25%" y="-6.25%" width="112.5%" height="112.5%"><feGaussianBlur stdDeviation="3" result="b"/><feFlood flood-color="rgba(0, 0, 0, 0.1)" in="SourceGraphic" result="f"/><feComposite in="f" in2="b" operator="in"/></filter></defs><g mask="url(#satori_ms-id-0-0-1-4-1)" filter="url(#satori_s-id-0-0-1-4-1)" opacity="1"><g mask="url(#satori_ms-id-0-0-1-4-1-neg)"><path x="520" y="203" width="80" height="80" fill="#fff" stroke="#fff" stroke-width="-8" d="M528,203 h64 a8,8 0 0 1 8,8 v64 a8,8 0 0 1 -8,8 h-64 a8,8 0 0 1 -8,-8 v-64 a8,8 0 0 1 8,-8"/></g></g><mask id="satori_ms-id-0-0-1-4-0" maskUnits="userSpaceOnUse"><rect x="0" y="0" width="800" height="400" fill="#fff"/><path x="520" y="199" width="80" height="80" fill="#000"  stroke-width="-6" d="M528,199 h64 a8,8 0 0 1 8,8 v64 a8,8 0 0 1 -8,8 h-64 a8,8 0 0 1 -8,-8 v-64 a8,8 0 0 1 8,-8"/></mask><mask id="satori_ms-id-0-0-1-4-0-neg" maskUnits="userSpaceOnUse"><path x="520" y="209" width="80" height="80" fill="#fff" stroke="#000" stroke-width="6" d="M528,209 h64 a8,8 0 0 1 8,8 v64 a8,8 0 0 1 -8,8 h-64 a8,8 0 0 1 -8,-8 v-64 a8,8 0 0 1 8,-8"/></mask><defs><filter id="satori_s-id-0-0-1-4-0" x="-66.5625%" y="-66.5625%" width="233.12499999999997%" height="233.12499999999997%"><feGaussianBlur stdDeviation="7.5" result="b"/><feFlood flood-color="rgba(0, 0, 0, 0.1)" in="SourceGraphic" result="f"/><feComposite in="f" in2="b" operator="in"/></filter></defs><g mask="url(#satori_ms-id-0-0-1-4-0)" filter="url(#satori_s-id-0-0-1-4-0)" opacity="1"><g mask="url(#satori_ms-id-0-0-1-4-0-neg)"><path x="520" y="209" width="80" height="80" fill="#fff" stroke="#fff" stroke-width="-6" d="M528,209 h64 a8,8 0 0 1 8,8 v64 a8,8 0 0 1 -8,8 h-64 a8,8 0 0 1 -8,-8 v-64 a8,8 0 0 1 8,-8"/></g></g><mask id="satori_om-id-0-0-1-4"><rect x="521" y="200" width="78" height="78" fill="#fff"/><path width="80" height="80" fill="none" stroke="#000" stroke-width="2" d="M522.343,201.343 A8,8 0 0 1 528,199 h64 a8,8 0 0 1 8,8 v64 a8,8 0 0 1 -8,8 h-64 a8,8 0 0 1 -8,-8 v-64 A8,8 0 0 1 522.343,201.343"/></mask><path x="520" y="199" width="80" height="80" fill="#fff" d="M528,199 h64 a8,8 0 0 1 8,8 v64 a8,8 0 0 1 -8,8 h-64 a8,8 0 0 1 -8,-8 v-64 a8,8 0 0 1 8,-8"/><path width="80" height="80" clip-path="url(#satori_bc-id-0-0-1-4)" fill="none" stroke="#e5e7eb" stroke-width="2" d="M522.343,201.343 A8,8 0 0 1 528,199 h64 a8,8 0 0 1 8,8 v64 a8,8 0 0 1 -8,8 h-64 a8,8 0 0 1 -8,-8 v-64 A8,8 0 0 1 522.343,201.343"/><mask id="satori_om-id-0-0-1-4-0"><rect x="547" y="219" width="27" height="40" fill="#fff"/></mask><path fill="#4f46e5" d="M565.4 242.4L565.4 225.9L571.0 225.9L571.0 242.9Q571.0 245.8 569.6 247.9Q568.3 250.1 565.8 251.3Q563.4 252.5 560.1 252.5L560.1 252.5Q556.9 252.5 554.4 251.3Q552.0 250.1 550.6 247.9Q549.3 245.8 549.3 242.9L549.3 242.9L549.3 225.9L554.8 225.9L554.8 242.4Q554.8 243.9 555.5 245.1Q556.1 246.3 557.3 246.9Q558.5 247.6 560.1 247.6L560.1 247.6Q561.7 247.6 562.9 246.9Q564.1 246.3 564.8 245.1Q565.4 243.9 565.4 242.4L565.4 242.4Z "/><mask id="satori_om-id-0-0-2"><rect x="273" y="327" width="254" height="54" fill="#fff"/></mask><mask id="satori_ms-id-0-0-2-0-1" maskUnits="userSpaceOnUse"><rect x="0" y="0" width="800" height="400" fill="#fff"/><path x="273" y="327" width="115" height="54" fill="#000"  stroke-width="-2" d="M279,327 h103 a6,6 0 0 1 6,6 v42 a6,6 0 0 1 -6,6 h-103 a6,6 0 0 1 -6,-6 v-42 a6,6 0 0 1 6,-6"/></mask><mask id="satori_ms-id-0-0-2-0-1-neg" maskUnits="userSpaceOnUse"><path x="273" y="328" width="115" height="54" fill="#fff" stroke="#000" stroke-width="2" d="M279,328 h103 a6,6 0 0 1 6,6 v42 a6,6 0 0 1 -6,6 h-103 a6,6 0 0 1 -6,-6 v-42 a6,6 0 0 1 6,-6"/></mask><defs><filter id="satori_s-id-0-0-2-0-1" x="0%" y="0%" width="100%" height="100%"><feGaussianBlur stdDeviation="1" result="b"/><feFlood flood-color="rgba(0, 0, 0, 0.1)" in="SourceGraphic" result="f"/><feComposite in="f" in2="b" operator="in"/></filter></defs><g mask="url(#satori_ms-id-0-0-2-0-1)" filter="url(#satori_s-id-0-0-2-0-1)" opacity="1"><g mask="url(#satori_ms-id-0-0-2-0-1-neg)"><path x="273" y="328" width="115" height="54" fill="#fff" stroke="#fff" stroke-width="-2" d="M279,328 h103 a6,6 0 0 1 6,6 v42 a6,6 0 0 1 -6,6 h-103 a6,6 0 0 1 -6,-6 v-42 a6,6 0 0 1 6,-6"/></g></g><mask id="satori_ms-id-0-0-2-0-0" maskUnits="userSpaceOnUse"><rect x="0" y="0" width="800" height="400" fill="#fff"/><path x="273" y="327" width="115" height="54" fill="#000"  stroke-width="0" d="M279,327 h103 a6,6 0 0 1 6,6 v42 a6,6 0 0 1 -6,6 h-103 a6,6 0 0 1 -6,-6 v-42 a6,6 0 0 1 6,-6"/></mask><defs><filter id="satori_s-id-0-0-2-0-0" x="-1.956521739130435%" y="-4.166666666666666%" width="103.91304347826087%" height="108.33333333333333%"><feGaussianBlur stdDeviation="1.5" result="b"/><feFlood flood-color="rgba(0, 0, 0, 0.1)" in="SourceGraphic" result="f"/><feComposite in="f" in2="b" operator="in"/></filter></defs><g mask="url(#satori_ms-id-0-0-2-0-0)" filter="url(#satori_s-id-0-0-2-0-0)" opacity="1"><path x="273" y="328" width="115" height="54" fill="#fff" stroke="#fff" stroke-width="0" d="M279,328 h103 a6,6 0 0 1 6,6 v42 a6,6 0 0 1 -6,6 h-103 a6,6 0 0 1 -6,-6 v-42 a6,6 0 0 1 6,-6"/></g><mask id="satori_om-id-0-0-2-0"><rect x="273" y="327" width="115" height="54" fill="#fff"/></mask><defs><clipPath id="satori_bc-id-0-0-2-0-0"><path x="273" y="327" width="115" height="54" d="M279,327 h103 a6,6 0 0 1 6,6 v42 a6,6 0 0 1 -6,6 h-103 a6,6 0 0 1 -6,-6 v-42 a6,6 0 0 1 6,-6"/></clipPath></defs><mask id="satori_om-id-0-0-2-0-0"><rect x="274" y="328" width="113" height="52" fill="#fff"/><path width="115" height="54" fill="none" stroke="#000" stroke-width="2" d="M274.757,328.757 A6,6 0 0 1 279,327 h103 a6,6 0 0 1 6,6 v42 a6,6 0 0 1 -6,6 h-103 a6,6 0 0 1 -6,-6 v-42 A6,6 0 0 1 274.757,328.757"/></mask><path x="273" y="327" width="115" height="54" fill="#4f46e5" d="M279,327 h103 a6,6 0 0 1 6,6 v42 a6,6 0 0 1 -6,6 h-103 a6,6 0 0 1 -6,-6 v-42 a6,6 0 0 1 6,-6"/><path width="115" height="54" clip-path="url(#satori_bc-id-0-0-2-0-0)" fill="none" stroke="transparent" stroke-width="2" d="M274.757,328.757 A6,6 0 0 1 279,327 h103 a6,6 0 0 1 6,6 v42 a6,6 0 0 1 -6,6 h-103 a6,6 0 0 1 -6,-6 v-42 A6,6 0 0 1 274.757,328.757"/><path fill="#fff" d="M299.0 348.9L294.9 348.9L294.9 347.5L304.7 347.5L304.7 348.9L300.6 348.9L300.6 360.5L299.0 360.5L299.0 348.9ZM307.4 360.5L305.9 360.5L305.9 350.7L307.4 350.7L307.4 352.2L307.5 352.2Q307.7 351.5 308.4 351.0Q309.1 350.6 310.0 350.6L310.0 350.6Q310.2 350.6 310.4 350.6Q310.7 350.6 310.8 350.6L310.8 350.6L310.8 352.1Q310.7 352.1 310.5 352.1Q310.2 352.0 309.9 352.0L309.9 352.0Q309.2 352.0 308.6 352.3Q308.1 352.6 307.7 353.1Q307.4 353.7 307.4 354.3L307.4 354.3L307.4 360.5ZM313.9 364.2L313.9 364.2Q313.5 364.2 313.2 364.2Q312.9 364.1 312.8 364.0L312.8 364.0L313.2 362.7Q313.7 362.9 314.1 362.8Q314.6 362.8 314.9 362.4Q315.2 362.1 315.5 361.4L315.5 361.4L315.8 360.6L312.2 350.7L313.8 350.7L316.5 358.6L316.6 358.6L319.3 350.7L320.9 350.7L316.8 362.0Q316.5 362.7 316.1 363.2Q315.7 363.7 315.1 364.0Q314.6 364.2 313.9 364.2Z M337.7 347.5L339.3 347.5L339.3 360.5L337.8 360.5L330.6 350.3L330.5 350.3L330.5 360.5L328.9 360.5L328.9 347.5L330.5 347.5L337.6 357.8L337.7 357.8L337.7 347.5ZM346.3 360.8L346.3 360.8Q344.9 360.8 343.9 360.1Q342.9 359.5 342.4 358.3Q341.8 357.2 341.8 355.7L341.8 355.7Q341.8 354.2 342.4 353.0Q342.9 351.9 343.9 351.2Q344.9 350.6 346.3 350.6L346.3 350.6Q347.6 350.6 348.6 351.2Q349.6 351.9 350.2 353.0Q350.7 354.2 350.7 355.7L350.7 355.7Q350.7 357.2 350.2 358.3Q349.6 359.5 348.6 360.1Q347.6 360.8 346.3 360.8ZM346.3 359.4L346.3 359.4Q347.3 359.4 347.9 358.9Q348.6 358.4 348.9 357.5Q349.2 356.7 349.2 355.7L349.2 355.7Q349.2 354.7 348.9 353.9Q348.6 353.0 347.9 352.5Q347.3 352.0 346.3 352.0L346.3 352.0Q345.3 352.0 344.6 352.5Q343.9 353.0 343.6 353.9Q343.3 354.7 343.3 355.7L343.3 355.7Q343.3 356.7 343.6 357.5Q343.9 358.4 344.6 358.9Q345.3 359.4 346.3 359.4ZM356.4 360.5L354.9 360.5L351.9 350.7L353.5 350.7L355.6 358.2L355.7 358.2L357.8 350.7L359.4 350.7L361.5 358.2L361.6 358.2L363.7 350.7L365.3 350.7L362.3 360.5L360.8 360.5L358.7 353.0L358.5 353.0L356.4 360.5Z "/><mask id="satori_ms-id-0-0-2-1-1" maskUnits="userSpaceOnUse"><rect x="0" y="0" width="800" height="400" fill="#fff"/><path x="388" y="327" width="139" height="54" fill="#000"  stroke-width="-2" d="M394,327 h127 a6,6 0 0 1 6,6 v42 a6,6 0 0 1 -6,6 h-127 a6,6 0 0 1 -6,-6 v-42 a6,6 0 0 1 6,-6"/></mask><mask id="satori_ms-id-0-0-2-1-1-neg" maskUnits="userSpaceOnUse"><path x="388" y="328" width="139" height="54" fill="#fff" stroke="#000" stroke-width="2" d="M394,328 h127 a6,6 0 0 1 6,6 v42 a6,6 0 0 1 -6,6 h-127 a6,6 0 0 1 -6,-6 v-42 a6,6 0 0 1 6,-6"/></mask><defs><filter id="satori_s-id-0-0-2-1-1" x="0%" y="0%" width="100%" height="100%"><feGaussianBlur stdDeviation="1" result="b"/><feFlood flood-color="rgba(0, 0, 0, 0.1)" in="SourceGraphic" result="f"/><feComposite in="f" in2="b" operator="in"/></filter></defs><g mask="url(#satori_ms-id-0-0-2-1-1)" filter="url(#satori_s-id-0-0-2-1-1)" opacity="1"><g mask="url(#satori_ms-id-0-0-2-1-1-neg)"><path x="388" y="328" width="139" height="54" fill="#fff" stroke="#fff" stroke-width="-2" d="M394,328 h127 a6,6 0 0 1 6,6 v42 a6,6 0 0 1 -6,6 h-127 a6,6 0 0 1 -6,-6 v-42 a6,6 0 0 1 6,-6"/></g></g><mask id="satori_ms-id-0-0-2-1-0" maskUnits="userSpaceOnUse"><rect x="0" y="0" width="800" height="400" fill="#fff"/><path x="388" y="327" width="139" height="54" fill="#000"  stroke-width="0" d="M394,327 h127 a6,6 0 0 1 6,6 v42 a6,6 0 0 1 -6,6 h-127 a6,6 0 0 1 -6,-6 v-42 a6,6 0 0 1 6,-6"/></mask><defs><filter id="satori_s-id-0-0-2-1-0" x="-1.618705035971223%" y="-4.166666666666666%" width="103.23741007194245%" height="108.33333333333333%"><feGaussianBlur stdDeviation="1.5" result="b"/><feFlood flood-color="rgba(0, 0, 0, 0.1)" in="SourceGraphic" result="f"/><feComposite in="f" in2="b" operator="in"/></filter></defs><g mask="url(#satori_ms-id-0-0-2-1-0)" filter="url(#satori_s-id-0-0-2-1-0)" opacity="1"><path x="388" y="328" width="139" height="54" fill="#fff" stroke="#fff" stroke-width="0" d="M394,328 h127 a6,6 0 0 1 6,6 v42 a6,6 0 0 1 -6,6 h-127 a6,6 0 0 1 -6,-6 v-42 a6,6 0 0 1 6,-6"/></g><mask id="satori_om-id-0-0-2-1"><rect x="388" y="327" width="139" height="54" fill="#fff"/></mask><defs><clipPath id="satori_bc-id-0-0-2-1-0"><path x="388" y="327" width="139" height="54" d="M394,327 h127 a6,6 0 0 1 6,6 v42 a6,6 0 0 1 -6,6 h-127 a6,6 0 0 1 -6,-6 v-42 a6,6 0 0 1 6,-6"/></clipPath></defs><mask id="satori_om-id-0-0-2-1-0"><rect x="389" y="328" width="137" height="52" fill="#fff"/><path width="139" height="54" fill="none" stroke="#000" stroke-width="2" d="M389.757,328.757 A6,6 0 0 1 394,327 h127 a6,6 0 0 1 6,6 v42 a6,6 0 0 1 -6,6 h-127 a6,6 0 0 1 -6,-6 v-42 A6,6 0 0 1 389.757,328.757"/></mask><path x="388" y="327" width="139" height="54" fill="#fff" d="M394,327 h127 a6,6 0 0 1 6,6 v42 a6,6 0 0 1 -6,6 h-127 a6,6 0 0 1 -6,-6 v-42 a6,6 0 0 1 6,-6"/><path width="139" height="54" clip-path="url(#satori_bc-id-0-0-2-1-0)" fill="none" stroke="transparent" stroke-width="2" d="M389.757,328.757 A6,6 0 0 1 394,327 h127 a6,6 0 0 1 6,6 v42 a6,6 0 0 1 -6,6 h-127 a6,6 0 0 1 -6,-6 v-42 A6,6 0 0 1 389.757,328.757"/><path fill="#4f46e5" d="M418.3 360.5L410.6 360.5L410.6 347.5L412.2 347.5L412.2 359.1L418.3 359.1L418.3 360.5ZM424.6 360.8L424.6 360.8Q423.2 360.8 422.2 360.1Q421.2 359.5 420.6 358.4Q420.0 357.2 420.0 355.7L420.0 355.7Q420.0 354.2 420.6 353.1Q421.2 351.9 422.1 351.2Q423.1 350.6 424.5 350.6L424.5 350.6Q425.2 350.6 426.0 350.9Q426.7 351.1 427.3 351.7Q428.0 352.3 428.3 353.2Q428.7 354.1 428.7 355.5L428.7 355.5L428.7 356.1L421.1 356.1L421.1 354.8L427.2 354.8Q427.2 354.0 426.8 353.4Q426.5 352.7 425.9 352.3Q425.3 352.0 424.5 352.0L424.5 352.0Q423.6 352.0 422.9 352.4Q422.3 352.8 421.9 353.6Q421.6 354.3 421.6 355.1L421.6 355.1L421.6 355.9Q421.6 357.1 421.9 357.8Q422.3 358.6 423.0 359.0Q423.7 359.4 424.6 359.4L424.6 359.4Q425.2 359.4 425.7 359.2Q426.2 359.1 426.5 358.7Q426.9 358.4 427.1 357.9L427.1 357.9L428.5 358.3Q428.3 359.0 427.8 359.6Q427.2 360.1 426.4 360.4Q425.6 360.8 424.6 360.8ZM433.9 360.8L433.9 360.8Q432.9 360.8 432.2 360.4Q431.4 360.1 431.0 359.4Q430.5 358.7 430.5 357.8L430.5 357.8Q430.5 356.9 430.9 356.4Q431.2 355.9 431.7 355.6Q432.3 355.3 433.0 355.1Q433.7 355.0 434.3 354.9L434.3 354.9Q435.2 354.8 435.8 354.7Q436.4 354.6 436.6 354.5Q436.9 354.3 436.9 354.0L436.9 354.0L436.9 353.9Q436.9 353.0 436.4 352.5Q435.8 351.9 434.8 351.9L434.8 351.9Q433.7 351.9 433.1 352.4Q432.5 352.9 432.2 353.4L432.2 353.4L430.8 352.9Q431.2 352.0 431.8 351.5Q432.5 351.0 433.2 350.8Q434.0 350.6 434.7 350.6L434.7 350.6Q435.2 350.6 435.8 350.7Q436.5 350.8 437.0 351.2Q437.6 351.5 438.0 352.2Q438.4 352.9 438.4 354.1L438.4 354.1L438.4 360.5L436.9 360.5L436.9 359.2L436.8 359.2Q436.6 359.5 436.3 359.9Q435.9 360.3 435.3 360.5Q434.7 360.8 433.9 360.8ZM434.1 359.4L434.1 359.4Q435.0 359.4 435.6 359.1Q436.2 358.7 436.6 358.2Q436.9 357.6 436.9 357.0L436.9 357.0L436.9 355.6Q436.8 355.7 436.5 355.8Q436.1 355.9 435.7 356.0Q435.3 356.0 434.9 356.1Q434.5 356.1 434.3 356.2L434.3 356.2Q433.7 356.3 433.2 356.4Q432.7 356.6 432.3 356.9Q432.0 357.3 432.0 357.8L432.0 357.8Q432.0 358.6 432.6 359.0Q433.2 359.4 434.1 359.4ZM442.6 360.5L441.1 360.5L441.1 350.7L442.6 350.7L442.6 352.2L442.7 352.2Q443.0 351.5 443.7 351.0Q444.4 350.6 445.3 350.6L445.3 350.6Q445.4 350.6 445.7 350.6Q445.9 350.6 446.0 350.6L446.0 350.6L446.0 352.1Q446.0 352.1 445.7 352.1Q445.4 352.0 445.1 352.0L445.1 352.0Q444.4 352.0 443.9 352.3Q443.3 352.6 443.0 353.1Q442.6 353.7 442.6 354.3L442.6 354.3L442.6 360.5ZM449.3 354.6L449.3 354.6L449.3 360.5L447.8 360.5L447.8 350.7L449.3 350.7L449.3 352.3L449.4 352.3Q449.8 351.5 450.5 351.1Q451.2 350.6 452.3 350.6L452.3 350.6Q453.3 350.6 454.0 351.0Q454.8 351.4 455.2 352.2Q455.6 353.1 455.6 354.3L455.6 354.3L455.6 360.5L454.1 360.5L454.1 354.4Q454.1 353.3 453.5 352.6Q452.9 352.0 451.9 352.0L451.9 352.0Q451.1 352.0 450.6 352.3Q450.0 352.6 449.7 353.2Q449.3 353.8 449.3 354.6Z M463.6 360.5L463.6 347.5L465.5 347.5L470.0 358.3L470.1 358.3L474.6 347.5L476.5 347.5L476.5 360.5L475.0 360.5L475.0 350.6L474.9 350.6L470.8 360.5L469.3 360.5L465.3 350.6L465.1 350.6L465.1 360.5L463.6 360.5ZM483.4 360.8L483.4 360.8Q482.1 360.8 481.1 360.1Q480.1 359.5 479.5 358.3Q479.0 357.2 479.0 355.7L479.0 355.7Q479.0 354.2 479.5 353.0Q480.1 351.9 481.1 351.2Q482.1 350.6 483.4 350.6L483.4 350.6Q484.8 350.6 485.8 351.2Q486.8 351.9 487.3 353.0Q487.9 354.2 487.9 355.7L487.9 355.7Q487.9 357.2 487.3 358.3Q486.8 359.5 485.8 360.1Q484.8 360.8 483.4 360.8ZM483.4 359.4L483.4 359.4Q484.4 359.4 485.1 358.9Q485.7 358.4 486.1 357.5Q486.4 356.7 486.4 355.7L486.4 355.7Q486.4 354.7 486.1 353.9Q485.7 353.0 485.1 352.5Q484.4 352.0 483.4 352.0L483.4 352.0Q482.4 352.0 481.8 352.5Q481.1 353.0 480.8 353.9Q480.5 354.7 480.5 355.7L480.5 355.7Q480.5 356.7 480.8 357.5Q481.1 358.4 481.8 358.9Q482.4 359.4 483.4 359.4ZM491.7 360.5L490.2 360.5L490.2 350.7L491.6 350.7L491.6 352.2L491.7 352.2Q492.0 351.5 492.7 351.0Q493.4 350.6 494.3 350.6L494.3 350.6Q494.5 350.6 494.7 350.6Q495.0 350.6 495.1 350.6L495.1 350.6L495.1 352.1Q495.0 352.1 494.7 352.1Q494.5 352.0 494.2 352.0L494.2 352.0Q493.5 352.0 492.9 352.3Q492.3 352.6 492.0 353.1Q491.7 353.7 491.7 354.3L491.7 354.3L491.7 360.5ZM500.7 360.8L500.7 360.8Q499.3 360.8 498.2 360.1Q497.2 359.5 496.7 358.4Q496.1 357.2 496.1 355.7L496.1 355.7Q496.1 354.2 496.7 353.1Q497.2 351.9 498.2 351.2Q499.2 350.6 500.5 350.6L500.5 350.6Q501.3 350.6 502.0 350.9Q502.8 351.1 503.4 351.7Q504.0 352.3 504.4 353.2Q504.8 354.1 504.8 355.5L504.8 355.5L504.8 356.1L497.2 356.1L497.2 354.8L503.2 354.8Q503.2 354.0 502.9 353.4Q502.6 352.7 502.0 352.3Q501.4 352.0 500.5 352.0L500.5 352.0Q499.6 352.0 499.0 352.4Q498.3 352.8 498.0 353.6Q497.6 354.3 497.6 355.1L497.6 355.1L497.6 355.9Q497.6 357.1 498.0 357.8Q498.4 358.6 499.1 359.0Q499.8 359.4 500.7 359.4L500.7 359.4Q501.3 359.4 501.8 359.2Q502.2 359.1 502.6 358.7Q503.0 358.4 503.1 357.9L503.1 357.9L504.6 358.3Q504.4 359.0 503.8 359.6Q503.3 360.1 502.5 360.4Q501.7 360.8 500.7 360.8Z "/></svg>